<?xml version="1.0" encoding="iso-8859-1"?>
<!-- Generator: Adobe Illustrator 19.0.0, SVG Export Plug-In . SVG Version: 6.00 Build 0)  -->
<svg version="1.1" id="Layer_1" xmlns="http://www.w3.org/2000/svg" xmlns:xlink="http://www.w3.org/1999/xlink" x="0px" y="0px"
	 viewBox="0 0 238.075 238.075" style="enable-background:new 0 0 238.075 238.075;" xml:space="preserve">
<g>
	<path style="fill:#1D1D1B;" d="M24.069,20.065c0.121,0,0.201,0.04,0.321,0.121c55.416,36.207,128.232,30.26,186.22,2.612
		C184.892,6.04,150.654,4.111,120.836,4.232C87.281,4.352,56.298,11.987,24.069,20.065z M215.996,22.918
		c0.322,0.563,0.362,1.326-0.161,2.009c-21.138,26.08-36.971,54.934-53.688,83.868c-6.47,11.172-16.396,36.127-30.26,44.526
		c2.773,5.626-0.121,12.216-5.184,15.029c0.402,12.096,0.643,24.192,1.045,36.288c13.743-2.492,32.229,3.295,43.36,10.609
		c0.161,0.12,0.281,0.241,0.362,0.362c1.005,0.241,1.848,1.447,1.246,2.492c-10.89,18.968-40.708,20.414-60.158,19.892
		c-10.287-0.281-43.441-1.045-48.263-14.226c-1.085,0.362-2.451-0.161-2.371-1.527c0.643-8.037,10.73-10.328,17.32-12.337
		c11.332-3.416,23.549-4.903,35.404-4.621c-0.04-12.216,1.206-24.674,2.652-36.368c-3.014-1.366-5.104-4.099-5.626-7.555
		c-0.281-2.049-0.522-5.706,0.603-8.077c-2.331-2.09-4.34-4.621-6.631-7.595c-9.484-12.377-17.963-25.638-26.804-38.498
		c-18.927-27.65-39.904-55.418-55.054-85.356c-0.12-0.121-0.281-0.241-0.402-0.362c-0.482-0.402-0.161-1.125,0.321-1.326
		c-0.121,0.04-0.241,0.08-0.362,0.08c-1.246,0.322-2.17-1.607-0.884-2.13C53.887,4.352,90.456-0.269,124.533,0.012
		c30.501,0.241,65.221,2.813,90.659,21.178C215.835,21.672,216.036,22.275,215.996,22.918z M186.339,59.165
		c6.671-10.569,13.743-20.897,21.74-30.541c-27.366,16.275-64.136,20.414-95.039,20.816c-29.938,0.362-60.439-5.786-84.591-23.91
		c9.082,11.895,17.24,24.513,25.397,37.091c41.874-7.716,86.801-9.564,128.996-4.3c0.442,0.04,0.723,0.241,1.005,0.442
		C184.731,58.281,185.736,58.563,186.339,59.165z M173.479,80.464c3.255-5.666,6.671-11.292,10.087-16.878
		c-34.399,25.116-90.498,24.393-127.027,3.255c3.416,5.264,6.872,10.529,10.368,15.713c8.037,11.855,16.114,23.71,24.312,35.484
		c7.675,11.051,17.24,30.22,30.22,36.167c13.864-2.652,27.085-30.461,33.716-41.713C161.384,101.883,167.331,91.113,173.479,80.464z
		 M168.778,217.617c-6.791-2.692-13.301-5.706-20.454-7.515c-6.751-1.728-13.784-1.929-20.495-3.456
		c0.161,4.219,0.321,8.479,0.522,12.739c0.12,1.848-2.572,2.049-3.094,0.402c-0.201-0.603-0.362-1.165-0.563-1.768
		c-0.161-0.603,0.04-1.045,0.402-1.286c-0.804-15.913-0.924-31.867,0.402-47.781c-1.768,0.723-3.737,1.045-5.747,0.683
		c-0.362-0.04-0.683-0.161-1.005-0.241c0.522,17.199-0.643,34.479-0.683,51.679c0,1.648-2.291,1.527-2.492,0
		c-0.563-4.461-0.844-8.961-0.924-13.543c-7.394,1.326-14.909,2.009-22.343,3.376c-6.791,1.246-22.504,3.456-26.322,10.328
		c7.073,13.422,45.41,13.141,56.903,12.538C139.402,232.928,157.365,230.437,168.778,217.617z M179.387,61.818
		c-41.11-1.487-81.014-0.804-121.964,2.853C93.229,82.875,145.671,84.965,179.387,61.818z M121.72,166.019
		c6.349-0.241,7.394-6.148,7.193-11.212c-1.447,0.603-2.893,1.085-4.42,1.246c0.442,1.206-0.442,2.773-2.09,2.411
		c-3.416-0.764-6.028-2.049-8.278-3.697c-0.161,2.21,0.402,5.224,0.683,6.148C115.733,164.13,118.304,166.18,121.72,166.019z"/>
	<path style="fill:#1D1D1B;" d="M193.813,39.675c0.482-0.804,1.607-0.121,1.206,0.723c-1.366,2.813-3.255,5.144-5.586,7.233
		c-0.764,0.683-1.929-0.442-1.125-1.165C190.478,44.498,192.246,42.167,193.813,39.675z"/>
	<path style="fill:#99D9F1;" d="M208.079,28.624c-7.997,9.645-15.07,19.972-21.74,30.541c-0.603-0.603-1.607-0.884-2.492-0.402
		c-0.281-0.201-0.563-0.402-1.005-0.442c-42.195-5.264-87.122-3.416-128.996,4.3C45.689,50.043,37.531,37.425,28.449,25.53
		c24.152,18.124,54.653,24.272,84.591,23.91C143.943,49.039,180.713,44.899,208.079,28.624z M195.019,40.399
		c0.402-0.844-0.723-1.527-1.206-0.723c-1.567,2.492-3.335,4.822-5.505,6.791c-0.804,0.723,0.362,1.849,1.125,1.165
		C191.764,45.542,193.653,43.212,195.019,40.399z M59.995,50.847c0.924-0.121,0.683-1.608-0.241-1.608
		c-2.009,0-3.858-0.362-5.626-1.366c-0.884-0.522-1.688,0.844-0.804,1.406C55.374,50.646,57.544,51.168,59.995,50.847z
		 M58.95,48.074c0.723,0.321,1.286-0.603,0.603-1.005c-2.049-1.366-4.019-2.853-5.787-4.581c-0.683-0.683-1.688,0.362-1.045,1.045
		C54.57,45.502,56.499,46.989,58.95,48.074z"/>
	<path style="fill:#E94B59;" d="M183.566,63.586c-3.416,5.586-6.832,11.212-10.087,16.878
		c-6.148,10.649-12.096,21.419-18.325,32.028c-6.631,11.252-19.852,39.06-33.716,41.713c-12.98-5.947-22.544-25.116-30.22-36.167
		c-8.198-11.774-16.275-23.629-24.312-35.484c-3.496-5.184-6.952-10.448-10.368-15.713C93.068,87.978,149.167,88.702,183.566,63.586
		z M141.612,131.54c0.201-0.522-0.723-0.884-0.924-0.362c-1.206,2.853-3.135,5.264-5.747,6.992c-0.482,0.362-0.04,1.125,0.482,0.804
		C138.317,137.206,140.366,134.755,141.612,131.54z M141.251,126.798c0.362-0.603-0.522-1.326-0.964-0.763
		c-1.286,1.648-2.411,3.416-3.577,5.184c-0.402,0.643,0.563,1.165,1.005,0.563C138.96,130.133,140.206,128.526,141.251,126.798z
		 M111.593,99.271c0.04-0.804-1.125-0.763-1.246,0c-0.201,2.21-0.482,4.38-0.603,6.55c-0.08,0.924,1.326,0.884,1.407,0
		C111.393,103.651,111.473,101.481,111.593,99.271z M81.133,92.198c0.522,1.005,1.969,0.121,1.487-0.884
		c-1.085-2.371-2.21-4.742-3.536-7.032c-0.563-0.964-1.889-0.08-1.447,0.884C78.641,87.577,79.847,89.907,81.133,92.198z
		 M75.346,89.023c0.362,0.683,1.326,0.08,1.005-0.563c-1.045-2.13-2.371-4.059-4.139-5.626c-0.522-0.442-1.206,0.241-0.764,0.763
		C72.935,85.286,74.261,87.054,75.346,89.023z"/>
	<path style="fill:#1D1D1B;" d="M166.929,29.83c0.804-0.522,1.688,0.643,1.005,1.326c-2.733,2.733-6.39,3.858-10.207,3.858
		c-1.045,0-0.965-1.447,0-1.527C161.102,33.085,164.076,31.598,166.929,29.83z"/>
	<path style="fill:#1D1D1B;" d="M165.322,27.178c0.804-0.522,1.768,0.723,1.045,1.366c-2.331,1.969-5.144,2.733-8.158,2.411
		c-1.085-0.121-1.125-1.849,0-1.768C160.821,29.388,163.152,28.624,165.322,27.178z"/>
	<path style="fill:#1D1D1B;" d="M163.433,14.68c0.924,0.321,0.563,1.607-0.402,1.447c-1.768-0.281-3.416-0.161-5.104,0.522
		c-0.844,0.362-1.447-1.085-0.603-1.447C159.334,14.278,161.343,13.997,163.433,14.68z"/>
	<path style="fill:#1D1D1B;" d="M156.642,215.367c0.442,0.442-0.201,1.045-0.643,0.683c-2.411-1.969-5.224-3.215-8.318-3.617
		c-0.723-0.08-0.764-1.246,0-1.165C151.136,211.63,154.15,212.996,156.642,215.367z"/>
	<path style="fill:#1D1D1B;" d="M152.342,217.457c0.362,0.764-0.643,1.688-1.246,0.964c-1.527-1.969-3.054-3.335-5.586-3.737
		c-0.723-0.121-0.563-1.366,0.201-1.326C148.363,213.599,151.176,214.925,152.342,217.457z"/>
	<path style="fill:#99D9F1;" d="M148.323,210.103c7.153,1.808,13.663,4.822,20.454,7.515
		c-11.413,12.819-29.376,15.311-45.892,16.155c-11.493,0.603-49.83,0.884-56.903-12.538c3.818-6.872,19.53-9.082,26.322-10.328
		c7.434-1.366,14.949-2.049,22.343-3.376c0.08,4.581,0.362,9.082,0.924,13.543c0.201,1.527,2.492,1.648,2.492,0
		c0.04-17.2,1.206-34.479,0.683-51.679c0.322,0.08,0.643,0.201,1.005,0.241c2.009,0.362,3.978,0.04,5.747-0.683
		c-1.326,15.913-1.206,31.867-0.402,47.781c-0.362,0.241-0.563,0.683-0.402,1.286c0.201,0.603,0.362,1.165,0.563,1.768
		c0.522,1.648,3.215,1.447,3.094-0.402c-0.201-4.26-0.362-8.519-0.522-12.739C134.54,208.174,141.572,208.375,148.323,210.103z
		 M155.999,216.05c0.442,0.362,1.085-0.241,0.643-0.683c-2.492-2.371-5.505-3.737-8.961-4.099c-0.764-0.08-0.723,1.085,0,1.165
		C150.775,212.835,153.588,214.081,155.999,216.05z M151.096,218.421c0.603,0.723,1.607-0.201,1.246-0.964
		c-1.165-2.532-3.978-3.858-6.631-4.099c-0.764-0.04-0.924,1.206-0.201,1.326C148.042,215.086,149.569,216.452,151.096,218.421z
		 M88.728,226.056c0.884,0.241,1.246-1.085,0.362-1.366c-2.773-0.965-5.425-2.291-7.836-3.978c-0.804-0.563-1.527,0.723-0.764,1.286
		C83.021,223.886,85.674,225.253,88.728,226.056z M80.369,226.056c0.723,0,0.964-1.246,0.161-1.326
		c-2.572-0.402-4.661-1.688-5.746-4.179c-0.281-0.723-1.527-0.201-1.246,0.522C74.623,224.007,77.195,226.097,80.369,226.056z"/>
	<path style="fill:#E94B59;" d="M57.423,64.671c40.949-3.657,80.854-4.34,121.964-2.853C145.671,84.965,93.229,82.875,57.423,64.671
		z M146.635,68.609c0.643-0.643-0.321-1.567-1.005-1.005c-1.808,1.487-4.099,2.09-6.389,1.607c-0.764-0.161-1.085,1.005-0.322,1.206
		C141.733,71.261,144.506,70.618,146.635,68.609z M144.988,71.743c0.683-0.482,0.08-1.527-0.643-1.125
		c-2.652,1.567-5.666,2.25-8.72,1.969c-0.643-0.08-0.764,1.005-0.161,1.085C138.92,74.315,142.135,73.713,144.988,71.743z"/>
	<path style="fill:#1D1D1B;" d="M145.631,67.604c0.683-0.563,1.648,0.362,1.005,1.005c-2.13,2.009-4.903,2.652-7.716,1.808
		c-0.764-0.201-0.442-1.366,0.322-1.206C141.532,69.694,143.822,69.091,145.631,67.604z"/>
	<path style="fill:#1D1D1B;" d="M144.345,70.618c0.723-0.402,1.326,0.643,0.643,1.125c-2.853,1.969-6.068,2.572-9.524,1.929
		c-0.603-0.08-0.482-1.165,0.161-1.085C138.679,72.869,141.693,72.186,144.345,70.618z"/>
	<path style="fill:#1D1D1B;" d="M140.688,131.178c0.201-0.522,1.125-0.161,0.924,0.362c-1.246,3.215-3.295,5.666-6.189,7.434
		c-0.522,0.321-0.964-0.442-0.482-0.804C137.553,136.442,139.482,134.031,140.688,131.178z"/>
	<path style="fill:#1D1D1B;" d="M140.286,126.034c0.442-0.563,1.326,0.161,0.964,0.763c-1.045,1.728-2.291,3.335-3.536,4.983
		c-0.442,0.603-1.407,0.08-1.005-0.563C137.875,129.45,139,127.682,140.286,126.034z"/>
	<path style="fill:#99D9F1;" d="M128.914,154.807c0.201,5.063-0.844,10.971-7.193,11.212c-3.416,0.161-5.988-1.889-6.912-5.104
		c-0.281-0.924-0.844-3.938-0.683-6.148c2.25,1.648,4.862,2.934,8.278,3.697c1.648,0.362,2.532-1.206,2.09-2.411
		C126.02,155.892,127.467,155.41,128.914,154.807z"/>
	<path style="fill:#99D9F1;" d="M120.836,4.232c29.818-0.121,64.056,1.808,89.775,18.566
		c-57.988,27.647-130.804,33.595-186.22-2.613c-0.12-0.08-0.201-0.121-0.321-0.121C56.298,11.987,87.281,4.352,120.836,4.232z
		 M167.934,31.156c0.683-0.683-0.201-1.849-1.005-1.326c-2.853,1.768-5.827,3.255-9.202,3.657c-0.965,0.08-1.045,1.527,0,1.527
		C161.544,35.014,165.201,33.889,167.934,31.156z M166.367,28.544c0.723-0.643-0.241-1.889-1.045-1.366
		c-2.17,1.447-4.501,2.21-7.113,2.009c-1.125-0.08-1.085,1.648,0,1.768C161.223,31.276,164.036,30.513,166.367,28.544z
		 M163.031,16.126c0.964,0.161,1.326-1.125,0.402-1.447c-2.09-0.683-4.099-0.402-6.108,0.522c-0.844,0.362-0.241,1.808,0.603,1.447
		C159.615,15.966,161.263,15.845,163.031,16.126z M106.691,9.576c0.884-0.362,0.563-1.768-0.402-1.487
		c-3.255,1.085-6.43,2.21-9.564,3.496c-0.844,0.362-0.563,1.728,0.402,1.447C100.341,12.028,103.516,10.862,106.691,9.576z
		 M102.712,21.31c1.125-0.322,0.643-1.929-0.482-1.728c-3.898,0.603-7.716,1.607-11.533,2.652c-1.085,0.281-0.603,1.889,0.482,1.688
		C95.077,23.199,98.935,22.436,102.712,21.31z M99.98,8.572c0.844-0.08,0.884-1.406,0-1.406c-3.416,0.08-6.952,0.924-9.926,2.612
		c-0.603,0.321-0.201,1.366,0.482,1.125C93.671,9.777,96.644,8.973,99.98,8.572z"/>
	<path style="fill:#1D1D1B;" d="M110.348,99.271c0.121-0.763,1.286-0.804,1.246,0c-0.12,2.21-0.201,4.38-0.442,6.55
		c-0.08,0.884-1.487,0.924-1.407,0C109.866,103.651,110.147,101.481,110.348,99.271z"/>
	<path style="fill:#1D1D1B;" d="M106.289,8.089c0.965-0.281,1.286,1.125,0.402,1.487c-3.175,1.286-6.349,2.451-9.564,3.456
		c-0.965,0.281-1.246-1.085-0.402-1.447C99.859,10.3,103.034,9.174,106.289,8.089z"/>
	<path style="fill:#1D1D1B;" d="M102.23,19.582c1.125-0.201,1.607,1.406,0.482,1.728c-3.777,1.125-7.635,1.889-11.533,2.612
		c-1.085,0.201-1.567-1.406-0.482-1.688C94.515,21.19,98.332,20.185,102.23,19.582z"/>
	<path style="fill:#1D1D1B;" d="M99.98,7.165c0.884,0,0.844,1.326,0,1.406c-3.335,0.402-6.309,1.206-9.444,2.331
		c-0.683,0.241-1.085-0.804-0.482-1.125C93.028,8.089,96.564,7.245,99.98,7.165z"/>
	<path style="fill:#1D1D1B;" d="M89.09,224.69c0.884,0.281,0.522,1.607-0.362,1.366c-3.054-0.804-5.706-2.17-8.238-4.059
		c-0.764-0.563-0.04-1.848,0.764-1.286C83.664,222.4,86.317,223.726,89.09,224.69z"/>
	<path style="fill:#1D1D1B;" d="M82.62,91.314c0.482,1.005-0.965,1.889-1.487,0.884c-1.286-2.291-2.492-4.621-3.496-7.033
		c-0.442-0.964,0.884-1.848,1.447-0.884C80.409,86.572,81.535,88.943,82.62,91.314z"/>
	<path style="fill:#1D1D1B;" d="M80.53,224.73c0.804,0.08,0.563,1.326-0.161,1.326c-3.175,0.04-5.747-2.049-6.832-4.983
		c-0.281-0.723,0.965-1.246,1.246-0.522C75.868,223.043,77.958,224.328,80.53,224.73z"/>
	<path style="fill:#1D1D1B;" d="M76.351,88.461c0.321,0.643-0.643,1.246-1.005,0.563c-1.085-1.969-2.411-3.737-3.898-5.425
		c-0.442-0.522,0.241-1.206,0.764-0.763C73.98,84.402,75.306,86.331,76.351,88.461z"/>
	<path style="fill:#1D1D1B;" d="M59.754,49.239c0.924,0,1.165,1.487,0.241,1.608c-2.451,0.321-4.621-0.201-6.671-1.567
		c-0.884-0.563-0.08-1.929,0.804-1.406C55.896,48.878,57.745,49.239,59.754,49.239z"/>
	<path style="fill:#1D1D1B;" d="M59.553,47.069c0.683,0.402,0.12,1.326-0.603,1.005c-2.451-1.085-4.38-2.572-6.229-4.541
		c-0.643-0.683,0.362-1.728,1.045-1.045C55.534,44.216,57.504,45.703,59.553,47.069z"/>
</g>
<g>
</g>
<g>
</g>
<g>
</g>
<g>
</g>
<g>
</g>
<g>
</g>
<g>
</g>
<g>
</g>
<g>
</g>
<g>
</g>
<g>
</g>
<g>
</g>
<g>
</g>
<g>
</g>
<g>
</g>
</svg>
