<?xml version="1.0" encoding="iso-8859-1"?>
<!-- Generator: Adobe Illustrator 19.0.0, SVG Export Plug-In . SVG Version: 6.00 Build 0)  -->
<svg version="1.1" id="Capa_1" xmlns="http://www.w3.org/2000/svg" xmlns:xlink="http://www.w3.org/1999/xlink" x="0px" y="0px"
	 viewBox="0 0 512.002 512.002" style="enable-background:new 0 0 512.002 512.002;" xml:space="preserve">
<path style="fill:#B26156;" d="M90.001,75c-12.426,0-22.5,10.074-22.5,22.5v125h45v-125C112.501,85.074,102.427,75,90.001,75z"/>
<polygon style="fill:#7BFFCD;" points="142.501,232.5 157.501,337.5 187.501,337.5 187.501,272.5 "/>
<polygon style="fill:#CAFFEB;" points="97.501,272.5 97.501,337.5 157.501,337.5 157.501,242.5 "/>
<path style="fill:#FF6288;" d="M167.501,172.5h-30l20,100h30v-80C187.501,181.454,178.547,172.5,167.501,172.5z"/>
<path style="fill:#FF849B;" d="M137.501,172.5h-20c-11.046,0-20,8.954-20,20v80h60v-80C157.501,181.454,148.547,172.5,137.501,172.5
	z"/>
<path style="fill:#864941;" d="M142.501,52.5v65l45-20C187.501,72.647,167.354,52.5,142.501,52.5z"/>
<path style="fill:#FFA4A9;" d="M142.501,82.52v59.98c24.853,0,45-20.147,45-45C170.608,97.5,155.032,91.926,142.501,82.52z"/>
<path style="fill:#B26156;" d="M157.352,91.204c-1.021-21.87-7.279-38.704-14.851-38.704c-7.667,0-14.884,1.923-21.202,5.305
	l21.202,59.695L157.352,91.204z"/>
<path style="fill:#FFC5BB;" d="M121.299,57.805c-14.161,7.58-23.798,22.51-23.798,39.695c0,24.853,20.147,45,45,45
	c8.284,0,15-20.147,15-45c0-2.138-0.053-4.238-0.149-6.296C141.91,84.426,129.197,72.599,121.299,57.805z"/>
<path style="fill:#4DA081;" d="M262.501,7.5l15,90h30v-45C307.501,27.647,287.354,7.5,262.501,7.5z"/>
<path style="fill:#5DC09A;" d="M262.501,7.5c-24.853,0-45,20.147-45,45v45h60v-45C277.501,27.647,270.785,7.5,262.501,7.5z"/>
<path style="fill:#4DA081;" d="M262.501,262.5v75c24.853,0,45-20.147,45-45L262.501,262.5z"/>
<path style="fill:#5DC09A;" d="M277.501,292.5l-30-30l-30,30c0,24.853,20.147,45,45,45C270.785,337.5,277.501,317.353,277.501,292.5
	z"/>
<path style="fill:#FFE29E;" d="M287.501,172.5h-30l20,120h30v-100C307.501,181.454,298.547,172.5,287.501,172.5z"/>
<path style="fill:#FFF1CF;" d="M257.501,172.5h-20c-11.046,0-20,8.954-20,20v100h60v-100
	C277.501,181.454,268.547,172.5,257.501,172.5z"/>
<path style="fill:#432521;" d="M262.501,52.5v65l45-20C307.501,72.647,287.354,52.5,262.501,52.5z"/>
<path style="fill:#CC8073;" d="M262.501,82.52v59.98c24.853,0,45-20.147,45-45C290.608,97.5,275.032,91.926,262.501,82.52z"/>
<path style="fill:#63352F;" d="M277.352,91.204c-1.021-21.87-7.279-38.704-14.851-38.704c-7.667,0-14.884,1.923-21.202,5.305
	l21.202,59.695L277.352,91.204z"/>
<path style="fill:#E59F8F;" d="M241.299,57.805c-14.161,7.58-23.798,22.51-23.798,39.695c0,24.853,20.147,45,45,45
	c8.284,0,15-20.147,15-45c0-2.138-0.053-4.238-0.149-6.296C261.91,84.426,249.197,72.599,241.299,57.805z"/>
<path style="fill:#432521;" d="M474.501,299.5l20,55l-33.99-20c-8.29,0-15-6.72-15-15v-20H474.501z"/>
<path style="fill:#864941;" d="M494.501,334.5l-20,100h-90c0,16.57-13.43,30-30,30v-80l91.27-17.22
	c8.11-1.53,14.74-9.53,14.74-17.78v-15H494.501z"/>
<rect x="474.5" y="299.5" style="fill:#63352F;" width="30" height="135"/>
<path d="M262.501,150c28.948,0,52.5-23.551,52.5-52.5v-45c0-28.949-23.552-52.5-52.5-52.5s-52.5,23.551-52.5,52.5v45
	C210.001,126.449,233.553,150,262.501,150z M225.001,52.5c0-20.678,16.822-37.5,37.5-37.5s37.5,16.822,37.5,37.5v8.308
	C290.464,51.063,277.18,45,262.501,45c-8.734,0-16.97,2.156-24.223,5.945c-0.172,0.076-0.344,0.151-0.512,0.241
	c-0.085,0.045-0.163,0.099-0.246,0.147c-4.641,2.521-8.854,5.728-12.519,9.474L225.001,52.5L225.001,52.5z M299.127,89.474
	c-18.874-2.342-35.848-12.518-46.802-28.06C255.563,60.5,258.974,60,262.501,60C280.424,60,295.441,72.641,299.127,89.474z
	 M238.907,68.38c13.714,20.517,35.847,33.785,60.412,36.212C295.994,121.889,280.754,135,262.501,135
	c-20.678,0-37.5-16.822-37.5-37.5C225.001,85.757,230.431,75.261,238.907,68.38z"/>
<path d="M316.873,497.385l-24.554-8.185l9.335-161.774c8.293-9.287,13.347-21.525,13.347-34.926v-92.144
	c41.987,3.804,75,39.182,75,82.144c0,4.142,3.357,7.5,7.5,7.5s7.5-3.358,7.5-7.5c0-51.572-40.25-93.913-90.985-97.277
	C310.817,173.581,300.145,165,287.501,165h-50c-12.563,0-23.178,8.472-26.452,20h-17.096c-3.274-11.528-13.889-20-26.452-20h-47.5
	v-20.076c6.824,3.251,14.452,5.076,22.5,5.076c28.948,0,52.5-23.551,52.5-52.5S171.449,45,142.501,45
	c-8.734,0-16.969,2.156-24.222,5.945c-0.172,0.076-0.344,0.152-0.513,0.242c-0.085,0.045-0.163,0.099-0.246,0.147
	c-7.657,4.16-14.16,10.176-18.925,17.432c-2.773-0.828-5.664-1.266-8.594-1.266c-16.542,0-30,13.458-30,30v78.447
	c-26.684-13.68-45-41.456-45-73.447c0-4.142-3.357-7.5-7.5-7.5s-7.5,3.358-7.5,7.5c0,40.48,24.799,75.273,60,89.996V222.5
	c0,4.142,3.357,7.5,7.5,7.5c4.143,0,7.5-3.358,7.5-7.5v-25.125c4.871,1.155,9.88,1.948,15,2.34V337.5c0,4.142,3.357,7.5,7.5,7.5
	h8.115l-8.602,149.068c-0.195,3.382,1.901,6.476,5.115,7.547l30,10c0.787,0.262,1.587,0.387,2.373,0.387
	c3.141,0,6.066-1.988,7.114-5.13c1.31-3.93-0.814-8.177-4.743-9.487l-24.554-8.185L120.64,345h44.975l-8.602,149.068
	c-0.195,3.382,1.901,6.476,5.115,7.547l30,10c0.787,0.262,1.587,0.387,2.373,0.387c3.141,0,6.066-1.988,7.114-5.13
	c1.31-3.93-0.814-8.177-4.743-9.487l-24.554-8.185L180.64,345h6.861c4.143,0,7.5-3.358,7.5-7.5V200h15v92.5
	c0,14.996,6.33,28.532,16.445,38.108l-9.433,163.46c-0.195,3.382,1.901,6.476,5.115,7.547l30,10
	c0.787,0.262,1.587,0.387,2.373,0.387c3.141,0,6.066-1.988,7.114-5.13c1.31-3.93-0.813-8.177-4.743-9.487l-24.554-8.185
	l8.59-148.865c6.591,2.987,13.897,4.665,21.591,4.665c8.419,0,16.375-2.003,23.434-5.541l-8.922,154.609
	c-0.195,3.382,1.901,6.476,5.115,7.547l30,10c0.787,0.262,1.587,0.387,2.373,0.387c3.141,0,6.066-1.988,7.114-5.13
	C322.926,502.942,320.803,498.695,316.873,497.385z M237.501,180h50c6.893,0,12.5,5.607,12.5,12.5V285h-75v-92.5
	C225.001,185.607,230.608,180,237.501,180z M180.001,192.5V265h-75v-72.5c0-6.893,5.607-12.5,12.5-12.5h50
	C174.394,180,180.001,185.607,180.001,192.5z M142.501,135c-20.678,0-37.5-16.822-37.5-37.5c0-11.743,5.43-22.239,13.906-29.12
	c13.714,20.517,35.847,33.785,60.412,36.212C175.994,121.889,160.754,135,142.501,135z M179.127,89.474
	c-18.874-2.342-35.848-12.518-46.802-28.06C135.563,60.5,138.974,60,142.501,60C160.424,60,175.441,72.641,179.127,89.474z
	 M75.001,97.5c0-8.271,6.729-15,15-15c0.723,0,1.442,0.054,2.151,0.156c-1.391,4.71-2.151,9.689-2.151,14.844
	c0,14.269,5.73,27.22,15,36.692v33.826c-6.644,3.406-11.727,9.433-13.875,16.712c-5.546-0.426-10.937-1.401-16.125-2.874V97.5z
	 M105.001,280h75v50h-75C105.001,330,105.001,280,105.001,280z M225.756,300h73.491c-3.484,17.096-18.635,30-36.745,30
	S229.24,317.096,225.756,300z"/>
<path d="M504.501,276.997c-4.143,0-7.5,3.358-7.5,7.5v7.5h-15v-7.5c0-4.142-3.357-7.5-7.5-7.5s-7.5,3.358-7.5,7.5v7.5h-21.492
	c-4.143,0-7.5,3.358-7.5,7.5v20c0,9.777,6.271,18.114,15,21.21v8.79c0,4.679-4.032,9.543-8.63,10.411l-82.378,15.542v-5.953
	c0-4.142-3.357-7.5-7.5-7.5s-7.5,3.358-7.5,7.5v14.87c0,0.021,0,120.133,0,120.133c0,4.142,3.357,7.5,7.5,7.5s7.5-3.358,7.5-7.5
	v-33.263c14.671-2.991,26.258-14.567,29.247-29.24h15.753V504.5c0,4.142,3.357,7.5,7.5,7.5s7.5-3.358,7.5-7.5v-62.503h45.449
	l-0.449,62.449c-0.029,4.142,3.304,7.524,7.446,7.554h0.055c4.117,0,7.469-3.322,7.499-7.446l0.45-62.557h14.55V504.5
	c0,4.142,3.357,7.5,7.5,7.5s7.5-3.358,7.5-7.5V284.497C512.001,280.355,508.644,276.997,504.501,276.997z M384.501,426.997
	c-4.143,0-7.5,3.358-7.5,7.5c0,9.779-6.271,18.116-15,21.213v-64.995l85.159-16.067c11.69-2.206,20.849-13.253,20.849-25.151v-7.5
	h6.492c4.143,0,7.5-3.358,7.5-7.5s-3.357-7.5-7.5-7.5h-13.992c-4.136,0-7.5-3.364-7.5-7.5v-12.5h43.992v120L384.501,426.997
	L384.501,426.997z"/>
</svg>
