<?xml version="1.0" encoding="iso-8859-1"?>
<!-- Generator: Adobe Illustrator 19.0.0, SVG Export Plug-In . SVG Version: 6.00 Build 0)  -->
<svg xmlns="http://www.w3.org/2000/svg" xmlns:xlink="http://www.w3.org/1999/xlink" version="1.1" id="Capa_1" x="0px" y="0px" viewBox="0 0 470 470" style="enable-background:new 0 0 470 470;" xml:space="preserve" width="512" height="512">
<g>
	<polygon style="fill:#FDFA7B;" points="383.626,27.5 333.626,27.5 308.626,102.5 283.626,27.5 233.626,27.5 213.626,197.5    403.626,197.5  "/>
	<polygon style="fill:#FDCE6E;" points="203.626,177.5 233.626,237.5 383.626,237.5 413.626,177.5  "/>
	<polygon style="fill:#FDA162;" points="433.626,177.5 433.626,237.5 383.626,237.5 383.626,177.5 408.626,157.5  "/>
	<polygon style="fill:#FDA162;" points="333.626,177.5 333.626,237.5 283.626,237.5 283.626,177.5 308.626,157.5  "/>
	<polygon style="fill:#FDA162;" points="233.626,177.5 233.626,237.5 183.626,237.5 183.626,177.5 208.626,157.5  "/>
	<rect x="383.626" y="7.5" style="fill:#FDCE6E;" width="50" height="170"/>
	<rect x="283.626" y="7.5" style="fill:#FDCE6E;" width="50" height="170"/>
	<rect x="183.626" y="7.5" style="fill:#FDCE6E;" width="50" height="170"/>
	<path style="fill:#B4462F;" d="M433.626,207.5h-30l10,255h30l17.65-225.09C462.566,220.96,450.126,207.5,433.626,207.5z"/>
	<path style="fill:#EF431D;" d="M403.626,207.5c16.5,0,28.94,13.46,27.65,29.91l-17.65,225.09h-240l-17.65-225.09   c-1.29-16.45,11.15-29.91,27.65-29.91H403.626z"/>
	<rect x="38.626" y="362.5" style="fill:#B4462F;" width="295" height="50"/>
	<rect x="38.626" y="272.5" style="fill:#84B044;" width="295" height="50"/>
	<path style="fill:#975D50;" d="M333.626,312.5h-30v60h30c16.5,0,30-13.5,30-30S350.126,312.5,333.626,312.5z"/>
	<path style="fill:#B1786B;" d="M303.626,312.5c16.5,0,30,13.5,30,30s-13.5,30-30,30h-265c-16.5,0-30-13.5-30-30s13.5-30,30-30   H303.626z"/>
	<path style="fill:#FD7555;" d="M323.626,402.5l-60,60h30c33.14,0,60-26.86,60-60H323.626z"/>
	<polygon style="fill:#FDFA7B;" points="353.626,252.5 353.626,282.5 313.626,282.5 186.126,342.5 186.126,222.5  "/>
	<polygon style="fill:#FEFDCA;" points="316.346,252.5 186.126,342.5 58.626,282.5 18.626,282.5 18.626,252.5 186.126,222.5  "/>
	<path style="fill:#FD7555;" d="M263.626,122.5h-30l90,130h30v-45C353.626,160.75,313.126,122.5,263.626,122.5z"/>
	<path style="fill:#FDA162;" d="M18.626,402.5h305c0,33.14-26.86,60-60,60h-185C45.486,462.5,18.626,435.64,18.626,402.5z"/>
	<path style="fill:#FDA162;" d="M323.626,207.5v45l-305,0v-45c0-46.75,40.5-85,90-85l125,0   C283.126,122.5,323.626,160.75,323.626,207.5z"/>
	<circle style="fill:#FEFDCA;" cx="116.126" cy="172.5" r="7.5"/>
	<circle style="fill:#FEFDCA;" cx="151.126" cy="202.5" r="7.5"/>
	<circle style="fill:#FEFDCA;" cx="221.126" cy="202.5" r="7.5"/>
	<circle style="fill:#FEFDCA;" cx="186.126" cy="172.5" r="7.5"/>
	<circle style="fill:#FEFDCA;" cx="256.126" cy="172.5" r="7.5"/>
	<path d="M459.631,211.194c-4.978-5.385-11.382-8.962-18.505-10.433V7.5c0-4.142-3.357-7.5-7.5-7.5h-50c-4.143,0-7.5,3.358-7.5,7.5   V20h-35V7.5c0-4.142-3.357-7.5-7.5-7.5h-50c-4.143,0-7.5,3.358-7.5,7.5V20h-35V7.5c0-4.142-3.357-7.5-7.5-7.5h-50   c-4.142,0-7.5,3.358-7.5,7.5v85c0,4.142,3.358,7.5,7.5,7.5s7.5-3.358,7.5-7.5V15h35v100h-117.5c-53.762,0-97.5,41.495-97.5,92.5v45   c0,4.142,3.358,7.5,7.5,7.5h335c4.143,0,7.5-3.358,7.5-7.5v-45c0-21.059-7.461-40.492-20-56.057V35h35v142.5   c0,4.142,3.357,7.5,7.5,7.5s7.5-3.358,7.5-7.5V15h35v185h-42.5c-4.143,0-7.5,3.358-7.5,7.5s3.357,7.5,7.5,7.5h50   c5.865,0,11.189,2.265,14.991,6.377c3.803,4.113,5.645,9.598,5.186,15.445L436.692,455h-75.704c-4.143,0-7.5,3.358-7.5,7.5   s3.357,7.5,7.5,7.5h82.639c3.915,0,7.171-3.011,7.477-6.914l17.654-225.092C469.547,227.93,466.306,218.412,459.631,211.194z    M241.126,35h35v59.632c0,4.142,3.357,7.5,7.5,7.5s7.5-3.358,7.5-7.5V15h35v121.563C309.191,123.111,287.39,115,263.626,115h-22.5   V35z M346.126,245h-320v-37.5c0-42.734,37.009-77.5,82.5-77.5h155c45.49,0,82.5,34.766,82.5,77.5V245z"/>
	<path d="M353.626,395h-335c-4.142,0-7.5,3.358-7.5,7.5c0,37.22,30.28,67.5,67.5,67.5h215c37.22,0,67.5-30.28,67.5-67.5   C361.126,398.358,357.769,395,353.626,395z M293.626,455h-215c-26.402,0-48.315-19.591-51.966-45h318.932   C341.942,435.409,320.029,455,293.626,455z"/>
	<path d="M1.126,342.5c0,20.678,16.822,37.5,37.5,37.5h295c20.678,0,37.5-16.822,37.5-37.5s-16.822-37.5-37.5-37.5h-50.198   l31.875-15h38.323c4.143,0,7.5-3.358,7.5-7.5s-3.357-7.5-7.5-7.5h-40c-1.104,0-2.194,0.244-3.193,0.714l-124.307,58.497   L61.82,275.714c-0.999-0.47-2.089-0.714-3.193-0.714h-40c-4.142,0-7.5,3.358-7.5,7.5s3.358,7.5,7.5,7.5H56.95l31.875,15H38.626   C17.948,305,1.126,321.822,1.126,342.5z M182.933,349.286c1.011,0.476,2.102,0.714,3.193,0.714s2.182-0.238,3.193-0.714   L251.553,320h82.073c12.406,0,22.5,10.093,22.5,22.5s-10.094,22.5-22.5,22.5h-295c-12.407,0-22.5-10.093-22.5-22.5   s10.093-22.5,22.5-22.5H120.7L182.933,349.286z"/>
</g>















</svg>
