<?xml version="1.0" encoding="iso-8859-1"?>
<!-- Generator: Adobe Illustrator 19.0.0, SVG Export Plug-In . SVG Version: 6.00 Build 0)  -->
<svg version="1.1" id="Capa_1" xmlns="http://www.w3.org/2000/svg" xmlns:xlink="http://www.w3.org/1999/xlink" x="0px" y="0px"
	 viewBox="0 0 496 496" style="enable-background:new 0 0 496 496;" xml:space="preserve">
<path style="fill:#FFA64D;" d="M248,0c-74.992,0-136,61.008-136,136v194.808c0.536-0.2,1.024-0.48,1.568-0.664
	c4.272-1.424,8.696-2.368,13.176-2.816l64.736-6.472c4.176-5.856,9.856-10.56,16.52-13.472v-4.136
	c-30.736-14.12-52.752-43.952-55.664-79.24H152c-17.672,0-32-14.328-32-32s14.328-32,32-32v-32h18.744
	c28.976,0,56.768-11.512,77.256-32c20.488,20.488,48.28,32,77.256,32H344v32c17.672,0,32,14.328,32,32s-14.328,32-32,32h-0.4
	c-2.656,32.12-21.144,59.672-47.6,75.024V320l70.488,6.408c5.976,0.544,11.84,1.776,17.512,3.608V136C384,61.008,322.992,0,248,0z"
	/>
<g>
	<path style="fill:#333333;" d="M200,160c-13.232,0-24,10.768-24,24h16c0-4.416,3.592-8,8-8s8,3.584,8,8h16
		C224,170.768,213.232,160,200,160z"/>
	<path style="fill:#333333;" d="M296,176c4.408,0,8,3.584,8,8h16c0-13.232-10.768-24-24-24s-24,10.768-24,24h16
		C288,179.584,291.592,176,296,176z"/>
	<path style="fill:#333333;" d="M403.24,329.784c-11.144-6.368-23.264-10.184-36.032-11.344L304,312.696V304h-0.832
		c25.152-15.832,43.024-42.08,47.568-72.68C369.584,228.088,384,211.744,384,192c0-19.312-13.768-35.472-32-39.192V120h-26.744
		c-27.048,0-52.48-10.528-71.6-29.656L248,84.688l-5.656,5.656C223.224,109.472,197.8,120,170.744,120H144v32.808
		c-18.232,3.72-32,19.872-32,39.192c0,19.704,14.352,36.024,33.128,39.304c4.552,31.264,22.904,58.448,50.12,74.352
		c-2.96,2.224-5.672,4.744-8.048,7.584l-61.24,6.128c-5.056,0.496-10.072,1.568-14.92,3.184C82.904,331.936,64,358.168,64,387.824
		v2.312c0,7.4,1.184,14.72,3.528,21.752L72,425.296V496h144h56h96v-63.464c3.12,2.432,6.64,4.392,10.448,5.88L411.36,496h81.584
		l-45.008-90.016C447.608,374.544,430.576,345.4,403.24,329.784z M441.752,429.4l-40.184,17.224l-6.176-10.808l40.824-17.496
		L441.752,429.4z M288,318.816c-0.904,2.784-5.024,12.84-16.384,19.4c-0.864-7.16-3.32-13.832-7-19.664
		c8.136-1.312,15.992-3.472,23.376-6.568v6.832H288z M224,440h-8v-48.72c2.608,0.44,5.272,0.72,8,0.72s5.392-0.28,8-0.72v49.448
		C229.392,440.28,226.728,440,224,440z M224,376c-17.648,0-32-14.352-32-32s14.352-32,32-32s32,14.352,32,32S241.648,376,224,376z
		 M368,192c0,10.416-6.712,19.216-16,22.528V169.48C361.288,172.784,368,181.584,368,192z M128,192c0-10.416,6.712-19.216,16-22.528
		v45.048C134.712,211.216,128,202.416,128,192z M160,216v-80h10.744c28.728,0,55.872-10.256,77.256-29.04
		c21.384,18.784,48.528,29.04,77.256,29.04H336v80c0,47.752-38.256,86.656-85.712,87.888C242.728,298.912,233.704,296,224,296
		c-3.464,0-6.84,0.392-10.104,1.088C181.096,283.312,160,251.776,160,216z M80,387.824c0-22.76,14.504-42.888,36.096-50.088
		c3.712-1.24,7.56-2.064,11.448-2.448l50.488-5.056C176.728,334.6,176,339.216,176,344c0,17.72,9.68,33.192,24,41.504V440h-48v-56
		h-16v32h-16v16h16v8H88v-8h16v-16H85.76l-3.056-9.168c-1.792-5.4-2.704-11.016-2.704-16.696V387.824z M216,480H88v-24h48h8h80
		c14.88,0,27.424,10.208,30.992,24H216z M368,399.896c0-3.928,0.928-7.864,2.688-11.384l4.472-8.936l-14.312-7.16l-4.472,8.936
		c-2.864,5.736-4.376,12.144-4.376,18.544c0,0.032,0.008,0.064,0.008,0.104H352v80h-80.72c-2.416-14.312-11.16-26.472-23.28-33.504
		v-60.992c10.872-6.312,19.024-16.752,22.336-29.184c18.376-6.432,27.232-19.728,30.976-27.808l64.456,5.856
		c10.464,0.944,20.4,4.08,29.536,9.296c21.44,12.248,35.184,34.624,36.584,59.104l-48.16,20.64
		C374.248,419.504,368,410.264,368,399.896z M420.64,480l-11.08-19.392l39.36-16.872L467.056,480H420.64z"/>
	<path style="fill:#333333;" d="M248,280c17.648,0,32-14.352,32-32s-14.352-32-32-32s-32,14.352-32,32S230.352,280,248,280z
		 M248,232c8.824,0,16,7.176,16,16s-7.176,16-16,16s-16-7.176-16-16S239.176,232,248,232z"/>
	<path style="fill:#333333;" d="M96,0H32v89.472C29.488,88.576,26.816,88,24,88C10.768,88,0,98.768,0,112s10.768,24,24,24
		s24-10.768,24-24V16h48V0z M24,120c-4.408,0-8-3.584-8-8s3.592-8,8-8s8,3.584,8,8S28.408,120,24,120z"/>
	<path style="fill:#333333;" d="M416,0v64h-4c-11.024,0-20,8.968-20,20s8.976,20,20,20s20-8.968,20-20V48h48v16h-4
		c-11.024,0-20,8.968-20,20s8.976,20,20,20s20-8.968,20-20V0H416z M416,84c0,2.2-1.792,4-4,4s-4-1.8-4-4s1.792-4,4-4h4V84z M480,84
		c0,2.2-1.792,4-4,4s-4-1.8-4-4s1.792-4,4-4h4V84z M432,32V16h48v16H432z"/>
</g>
<g>
</g>
<g>
</g>
<g>
</g>
<g>
</g>
<g>
</g>
<g>
</g>
<g>
</g>
<g>
</g>
<g>
</g>
<g>
</g>
<g>
</g>
<g>
</g>
<g>
</g>
<g>
</g>
<g>
</g>
</svg>
