<svg id="svg" version="1.1" width="400" height="462" xmlns="http://www.w3.org/2000/svg" xmlns:xlink="http://www.w3.org/1999/xlink" style="display: block;"><g id="dancing-couple"><path id="path0" d="M174.870 46.713 C 171.387 49.079,165.795 56.376,158.553 68.000 C 139.264 98.966,123.357 120.408,120.134 119.787 C 118.751 119.521,117.293 116.605,111.988 103.500 C 100.970 76.282,97.352 72.345,83.707 72.728 C 79.243 72.854,75.345 72.629,75.045 72.228 C 69.063 64.243,50.632 72.433,47.653 84.401 C 47.365 85.556,46.214 89.650,45.094 93.500 C 43.679 98.364,43.049 103.475,43.029 110.250 C 43.013 115.612,42.603 120.000,42.119 120.000 C 40.748 120.000,35.000 126.221,35.000 127.703 C 35.000 128.431,34.587 129.809,34.083 130.764 C 29.588 139.275,27.911 173.702,31.385 186.144 C 34.457 197.149,40.822 198.232,49.557 189.238 C 53.100 185.590,56.000 186.041,56.000 190.239 C 56.000 191.497,62.597 201.597,64.966 203.966 C 67.946 206.946,67.754 207.179,58.810 211.406 C 54.305 213.535,50.143 215.669,49.560 216.150 C 48.977 216.630,45.350 219.080,41.500 221.594 C 29.225 229.608,22.000 238.104,22.000 244.522 C 22.000 248.512,29.829 263.829,34.000 268.000 C 34.275 268.275,37.200 271.633,40.500 275.461 C 48.472 284.711,57.740 293.948,67.492 302.363 L 75.484 309.259 77.211 321.380 C 79.027 334.132,79.205 334.895,83.881 350.000 C 87.249 360.881,88.495 363.987,94.591 376.683 C 98.926 385.713,99.743 388.506,98.243 389.167 C 95.269 390.475,85.446 407.295,86.582 409.133 C 87.907 411.277,98.056 407.945,105.361 402.969 C 109.460 400.177,109.925 397.751,107.384 392.397 C 106.495 390.524,106.030 387.981,106.349 386.746 C 109.474 374.671,110.330 370.269,111.064 362.500 C 113.145 340.499,109.081 315.463,100.270 296.000 C 97.969 290.918,97.873 290.120,99.001 285.500 C 102.151 272.598,104.275 260.930,106.533 244.126 C 107.649 235.821,108.727 231.615,110.530 228.538 C 114.100 222.447,113.958 220.875,108.781 209.096 C 99.960 189.030,104.247 170.277,121.950 151.486 C 134.812 137.833,138.357 133.754,144.095 126.000 C 153.418 113.402,158.510 105.766,159.601 102.750 C 159.949 101.787,160.631 101.000,161.117 101.000 C 161.602 101.000,162.000 100.558,162.000 100.018 C 162.000 99.477,163.800 96.094,166.000 92.500 C 168.200 88.906,170.000 85.739,170.000 85.463 C 170.000 85.186,171.054 83.282,172.342 81.230 C 175.157 76.748,180.517 67.190,183.687 61.000 C 189.077 50.476,183.244 41.024,174.870 46.713 M288.502 49.891 C 265.037 57.430,263.190 105.788,285.973 116.085 C 291.479 118.573,291.644 120.000,286.427 120.000 C 284.527 120.000,282.191 120.376,281.236 120.836 C 268.367 127.032,264.985 129.030,261.540 132.468 C 257.242 136.758,253.000 141.722,253.000 142.463 C 253.000 142.710,251.899 144.533,250.554 146.515 C 249.209 148.497,246.697 153.017,244.971 156.560 C 241.219 164.262,240.466 164.401,235.835 158.250 C 227.768 147.535,224.224 139.493,221.759 126.310 C 219.533 114.398,211.409 108.776,203.734 113.837 C 195.149 119.498,193.087 135.455,200.589 138.169 C 205.703 140.018,215.000 159.039,215.000 167.651 C 215.000 168.408,215.395 169.809,215.879 170.764 C 216.362 171.719,218.049 175.388,219.629 178.917 C 225.497 192.030,236.246 194.791,251.530 187.110 L 259.271 183.220 258.593 193.360 C 257.866 204.252,255.510 218.411,253.955 221.236 C 253.430 222.191,253.000 223.580,253.000 224.321 C 253.000 227.352,240.889 249.913,238.768 250.833 C 238.346 251.017,238.000 251.588,238.000 252.104 C 238.000 252.619,231.058 262.617,222.573 274.320 C 204.896 298.703,200.653 306.015,201.581 310.500 C 204.207 323.182,214.934 351.532,222.771 366.500 C 224.211 369.250,226.089 372.850,226.944 374.499 C 227.800 376.149,228.725 377.724,229.000 377.999 C 232.330 381.334,233.685 389.000,230.945 389.000 C 229.231 389.000,225.172 396.668,224.495 401.186 C 223.360 408.756,226.933 410.579,236.572 407.348 C 249.719 402.941,254.434 393.635,247.393 385.987 C 245.181 383.584,245.072 382.727,244.903 366.487 C 244.616 338.807,241.953 322.852,236.362 315.317 C 233.423 311.355,233.419 310.610,236.335 308.700 C 243.870 303.763,265.723 285.336,274.207 276.765 C 281.412 269.486,281.590 269.516,282.937 278.250 C 283.552 282.238,284.455 287.075,284.944 289.000 C 285.433 290.925,286.131 294.525,286.497 297.000 C 286.862 299.475,287.550 302.850,288.026 304.500 C 288.501 306.150,289.654 310.200,290.587 313.500 C 292.992 322.006,295.331 326.235,300.659 331.713 C 308.202 339.468,318.080 351.604,328.185 365.527 C 338.184 379.306,339.583 381.123,344.745 387.022 L 347.990 390.731 344.495 394.437 C 342.573 396.475,341.000 398.605,341.000 399.170 C 341.000 399.735,340.289 401.695,339.421 403.526 C 336.580 409.513,337.649 411.450,344.000 411.822 C 360.122 412.765,370.830 399.896,361.602 390.669 C 358.754 387.821,358.034 386.156,357.154 380.385 C 354.977 366.098,353.111 358.185,350.877 353.764 C 350.395 352.809,350.000 351.494,350.000 350.843 C 350.000 346.063,337.425 324.644,329.294 315.574 L 324.877 310.647 325.509 299.574 C 326.064 289.835,324.386 264.176,322.431 252.500 C 321.987 249.848,322.426 249.170,326.214 246.654 C 328.571 245.089,332.052 241.714,333.949 239.154 C 337.813 233.940,347.515 224.203,359.973 213.034 C 374.857 199.692,379.188 188.044,374.546 173.851 C 368.089 154.110,336.453 128.606,309.000 121.009 C 301.333 118.888,301.300 118.854,305.500 117.405 C 343.744 104.207,326.958 37.535,288.502 49.891 M181.502 52.007 C 182.269 54.421,181.243 56.547,169.447 77.000 C 167.386 80.575,163.943 86.642,161.798 90.483 C 158.364 96.628,146.020 115.784,143.744 118.500 C 143.283 119.050,141.081 121.975,138.851 125.000 C 136.622 128.025,132.270 133.200,129.181 136.500 L 123.566 142.500 122.738 134.500 C 122.006 127.415,122.116 126.327,123.706 124.987 C 127.830 121.510,136.196 110.027,152.825 85.019 C 173.523 53.891,179.805 46.660,181.502 52.007 M307.776 55.752 C 311.156 57.300,318.995 65.425,319.006 67.391 C 319.010 68.001,319.698 69.814,320.535 71.421 C 322.901 75.957,320.847 76.352,316.765 72.146 C 309.763 64.932,302.500 64.497,294.211 70.797 C 290.986 73.248,286.000 72.661,286.000 69.831 C 286.000 69.374,283.945 69.000,281.433 69.000 C 277.160 69.000,276.909 68.855,277.549 66.750 C 280.976 55.466,295.566 50.158,307.776 55.752 M309.931 72.464 C 316.650 75.939,323.476 90.455,320.967 95.931 C 317.394 103.726,316.238 105.496,312.793 108.445 C 294.799 123.847,270.597 107.184,276.541 83.484 C 279.192 72.914,280.915 71.038,284.419 74.910 C 288.010 78.879,293.753 78.103,299.344 72.894 C 301.775 70.629,306.047 70.456,309.931 72.464 M71.900 75.553 C 75.494 77.931,76.279 78.058,83.401 77.413 L 91.044 76.720 94.838 80.709 C 97.122 83.110,100.143 88.243,102.423 93.599 C 104.508 98.495,106.807 103.850,107.533 105.500 C 112.294 116.322,116.892 128.382,117.968 132.868 C 121.908 149.292,104.270 160.908,97.394 146.418 C 95.591 142.619,95.785 138.188,98.461 122.000 C 101.709 102.347,98.774 92.525,87.563 85.539 C 78.571 79.936,60.232 86.591,58.320 96.150 C 58.002 97.740,57.350 99.284,56.871 99.580 C 53.487 101.671,57.525 113.499,65.096 123.671 C 73.858 135.442,75.391 142.337,70.364 147.364 C 62.396 155.331,52.116 145.748,48.568 127.045 C 42.741 96.330,56.711 65.501,71.900 75.553 M84.264 89.250 C 87.738 91.192,92.000 95.243,92.000 96.604 C 92.000 97.280,92.550 98.017,93.223 98.241 C 95.204 98.901,94.889 115.689,92.815 120.015 C 88.026 130.002,76.568 132.753,71.708 125.082 C 70.808 123.662,68.256 119.825,66.036 116.556 C 55.520 101.068,69.076 80.761,84.264 89.250 M213.500 117.765 C 215.264 119.061,217.000 122.898,217.000 125.499 C 217.000 143.346,240.001 178.073,244.818 167.500 C 246.431 163.960,246.966 164.264,251.934 171.554 C 257.065 179.082,257.094 179.002,247.528 183.926 C 234.292 190.739,226.225 186.261,220.638 169.000 C 219.837 166.525,217.793 159.957,216.096 154.405 C 212.574 142.884,210.004 138.520,204.718 135.082 C 200.489 132.333,199.666 127.480,202.500 122.000 C 204.760 117.630,210.374 115.469,213.500 117.765 M305.418 124.607 C 306.999 125.213,307.668 127.970,306.250 128.033 C 305.837 128.052,303.295 130.062,300.600 132.500 C 295.040 137.531,294.258 137.468,293.371 131.920 C 293.023 129.740,292.346 127.714,291.869 127.419 C 287.682 124.832,299.573 122.364,305.418 124.607 M287.000 127.940 C 287.000 128.890,287.337 129.996,287.750 130.398 C 288.163 130.800,288.954 134.132,289.509 137.803 C 290.844 146.632,292.413 146.940,299.873 139.836 C 302.968 136.889,307.344 132.771,309.598 130.685 L 313.696 126.891 319.563 129.486 C 325.605 132.157,341.805 142.631,348.000 147.870 C 349.925 149.498,352.595 151.704,353.934 152.773 C 356.777 155.043,357.025 154.590,346.500 166.307 C 338.902 174.766,335.010 174.899,333.481 166.753 C 331.667 157.079,328.028 158.170,328.437 168.265 C 328.770 176.516,327.062 181.029,320.128 190.215 C 313.592 198.875,312.909 202.585,315.120 217.451 C 316.134 224.267,316.063 225.246,314.370 227.742 C 313.342 229.259,311.762 232.041,310.860 233.925 C 306.692 242.628,282.051 242.040,262.169 232.764 C 256.535 230.135,256.521 230.063,259.450 218.790 C 264.274 200.221,265.247 160.000,260.871 160.000 C 259.247 160.000,259.000 160.807,259.000 166.122 C 259.000 173.263,258.494 173.139,252.574 164.543 L 248.766 159.014 253.133 151.286 C 262.506 134.699,287.000 117.814,287.000 127.940 M44.424 130.316 C 45.108 133.031,44.979 134.671,43.924 136.642 C 39.420 145.057,42.909 165.568,49.090 167.018 C 52.113 167.727,53.553 176.765,51.182 180.150 C 44.148 190.193,38.210 192.589,36.069 186.250 C 33.877 179.761,33.509 154.745,35.453 144.447 C 37.035 136.071,37.657 133.995,40.315 128.227 C 41.744 125.125,43.317 125.925,44.424 130.316 M92.000 134.924 C 92.000 139.489,89.298 143.290,84.401 145.614 C 80.216 147.600,78.087 145.835,78.032 140.332 C 78.014 138.589,77.727 136.452,77.393 135.582 C 76.907 134.314,77.553 133.985,80.643 133.927 C 82.764 133.887,85.850 133.047,87.500 132.060 C 91.308 129.783,92.000 130.223,92.000 134.924 M52.885 149.189 C 55.438 152.315,55.517 151.744,51.502 159.198 C 49.291 163.302,47.512 160.770,47.203 153.083 C 46.853 144.365,47.568 141.468,49.349 144.384 C 49.982 145.420,51.573 147.582,52.885 149.189 M94.031 150.556 C 96.021 154.147,100.882 157.102,104.990 157.219 C 109.021 157.333,109.548 158.413,107.204 161.757 C 103.666 166.807,100.923 176.892,100.298 187.152 C 99.730 196.480,99.581 197.000,97.477 197.000 C 94.946 197.000,81.224 201.279,76.050 203.681 L 72.601 205.283 68.314 200.392 C 60.575 191.560,57.591 184.072,57.198 172.500 C 56.686 157.406,57.871 154.676,65.281 153.879 C 68.458 153.538,71.867 152.525,72.857 151.629 C 75.122 149.580,77.000 149.536,77.000 151.531 C 77.000 154.432,79.787 154.119,85.137 150.617 C 91.289 146.591,91.831 146.587,94.031 150.556 M367.783 169.947 C 370.888 175.492,371.400 177.321,371.446 183.025 C 371.545 195.252,367.411 200.925,342.807 222.323 C 339.126 225.524,333.968 231.286,331.344 235.126 C 325.522 243.646,321.399 246.147,317.445 243.556 C 311.621 239.740,313.247 236.293,328.573 219.965 C 344.481 203.017,348.474 193.708,344.648 182.480 C 342.794 177.038,342.217 178.169,352.945 166.206 L 359.391 159.019 361.782 161.259 C 363.098 162.492,365.798 166.401,367.783 169.947 M337.631 179.750 C 343.288 187.144,341.395 198.310,332.722 208.715 C 322.771 220.653,321.782 221.303,320.027 217.064 C 316.600 208.791,318.287 200.931,325.675 190.742 C 327.971 187.574,330.393 183.299,331.057 181.242 C 333.185 174.639,333.642 174.535,337.631 179.750 M279.500 201.000 C 279.160 201.550,279.557 202.000,280.382 202.000 C 281.207 202.000,282.160 201.550,282.500 201.000 C 282.840 200.450,282.443 200.000,281.618 200.000 C 280.793 200.000,279.840 200.450,279.500 201.000 M103.189 207.000 C 104.304 210.025,105.875 214.286,106.679 216.468 C 112.124 231.252,94.683 240.028,50.803 244.586 C 42.055 245.494,41.489 247.035,48.271 251.474 C 55.976 256.516,71.000 271.611,71.000 274.309 C 71.000 274.763,72.052 276.566,73.337 278.317 C 76.201 282.217,79.661 290.346,82.139 298.997 C 85.528 310.829,84.985 310.853,71.052 299.500 C 52.182 284.123,27.000 252.969,27.000 245.000 C 27.000 237.327,44.953 222.404,65.000 213.414 C 72.983 209.834,76.828 208.200,79.500 207.252 C 81.150 206.666,83.400 205.844,84.500 205.425 C 88.744 203.807,98.563 201.192,99.831 201.342 C 100.562 201.429,102.074 203.975,103.189 207.000 M290.000 206.000 C 290.000 206.550,290.675 207.000,291.500 207.000 C 292.325 207.000,293.000 206.550,293.000 206.000 C 293.000 205.450,292.325 205.000,291.500 205.000 C 290.675 205.000,290.000 205.450,290.000 206.000 M268.220 240.414 C 278.838 243.913,296.683 244.993,308.362 242.843 C 309.439 242.644,310.703 243.343,311.362 244.500 C 312.510 246.517,313.406 247.394,315.816 248.855 C 318.823 250.679,321.750 283.499,320.518 301.570 L 319.816 311.877 311.359 318.888 C 306.708 322.745,302.357 325.691,301.691 325.435 C 299.327 324.528,293.000 309.202,293.000 304.383 C 293.000 303.425,292.582 301.260,292.072 299.571 C 291.561 297.882,290.471 293.125,289.649 289.000 C 284.196 261.630,284.482 264.342,286.467 258.822 C 287.989 254.589,288.056 253.649,286.888 252.910 C 284.829 251.605,284.000 251.804,283.379 253.750 C 279.678 265.347,268.398 277.526,242.875 297.485 C 239.369 300.226,236.275 302.725,236.000 303.038 C 231.533 308.112,227.824 309.377,220.891 308.188 C 217.080 307.535,212.621 307.000,210.981 307.000 C 209.342 307.000,208.000 306.524,208.000 305.942 C 208.000 304.170,218.356 287.113,222.234 282.500 C 224.281 280.064,239.825 258.829,241.534 256.132 C 242.103 255.234,244.353 251.789,246.534 248.477 C 248.715 245.164,251.346 240.573,252.380 238.276 L 254.260 234.098 259.100 236.551 C 261.762 237.900,265.866 239.638,268.220 240.414 M101.994 242.250 C 101.987 247.455,99.946 259.757,96.476 275.500 C 95.628 279.350,94.505 284.451,93.981 286.836 C 93.193 290.423,93.381 291.977,95.069 295.836 C 96.191 298.401,97.474 301.400,97.921 302.500 C 98.367 303.600,99.208 305.625,99.790 307.000 C 106.073 321.856,108.563 353.243,104.946 372.000 C 103.162 381.254,102.409 381.308,97.980 372.500 C 90.352 357.329,85.997 343.943,81.938 323.198 C 80.133 313.977,83.749 311.256,86.018 320.128 C 89.510 333.787,90.395 335.611,92.811 334.117 C 94.600 333.011,96.146 320.933,95.792 310.825 L 95.500 302.500 92.009 302.169 C 88.048 301.793,87.415 301.095,85.958 295.500 C 84.660 290.517,84.119 289.158,80.024 280.629 C 77.193 274.731,76.691 272.537,76.476 265.129 C 76.339 260.383,75.900 254.813,75.502 252.750 C 74.907 249.669,75.065 249.000,76.389 249.000 C 77.275 249.000,78.000 248.550,78.000 248.000 C 78.000 247.450,77.475 247.000,76.833 247.000 C 74.337 247.000,77.028 245.866,84.108 243.935 C 88.173 242.826,92.850 241.316,94.500 240.581 C 98.087 238.981,100.233 238.186,101.250 238.079 C 101.662 238.036,101.997 239.912,101.994 242.250 M71.201 255.965 C 71.587 260.621,71.696 264.637,71.444 264.889 C 70.985 265.348,55.366 251.016,55.127 249.918 C 54.943 249.072,63.981 247.208,67.500 247.365 L 70.500 247.500 71.201 255.965 M220.819 313.073 C 235.656 315.366,240.086 326.756,240.360 363.320 C 240.544 387.718,240.333 387.955,231.710 373.000 C 222.646 357.280,211.111 329.495,208.171 316.299 C 207.080 311.405,207.335 310.953,210.868 311.519 C 212.316 311.751,216.793 312.450,220.819 313.073 M326.002 319.250 C 331.124 324.615,339.771 338.200,343.088 346.093 C 344.800 350.167,346.606 354.281,347.100 355.236 C 347.595 356.191,348.000 357.660,348.000 358.500 C 348.000 359.340,348.430 360.809,348.955 361.764 C 350.245 364.107,353.000 378.812,353.000 383.350 C 353.000 390.651,350.680 388.156,323.853 352.000 C 318.343 344.575,311.960 336.560,309.668 334.188 L 305.500 329.876 309.945 326.188 C 312.389 324.160,315.989 321.050,317.945 319.277 C 322.338 315.294,322.225 315.294,326.002 319.250 M244.429 389.571 C 246.897 392.040,246.301 394.357,242.250 398.048 C 230.625 408.638,223.073 403.896,234.440 393.145 C 240.228 387.671,241.922 387.065,244.429 389.571 M101.362 398.412 C 98.321 402.224,96.000 403.067,96.000 400.358 C 96.000 397.948,101.947 392.547,103.210 393.810 C 103.896 394.496,103.298 395.986,101.362 398.412 M359.794 395.042 C 362.488 399.356,356.019 406.145,347.909 407.515 C 342.565 408.418,342.416 408.080,345.535 402.115 C 349.876 393.812,356.862 390.347,359.794 395.042 " stroke="none" fill="#ff0037" fill-rule="evenodd"></path></g></svg>