<?xml version="1.0" encoding="iso-8859-1"?>
<!-- Generator: Adobe Illustrator 19.0.0, SVG Export Plug-In . SVG Version: 6.00 Build 0)  -->
<svg version="1.1" id="Capa_1" xmlns="http://www.w3.org/2000/svg" xmlns:xlink="http://www.w3.org/1999/xlink" x="0px" y="0px"
	 viewBox="0 0 512 512" style="enable-background:new 0 0 512 512;" xml:space="preserve">
<circle style="fill:#3F4347;" cx="256" cy="256" r="256"/>
<polygon style="fill:#BAC6D0;" points="169.728,427.488 177.728,417.776 334.272,417.776 342.272,427.488 "/>
<g>
	<polygon style="fill:#8F6D52;" points="150.208,451.184 161.984,436.88 350.016,436.88 361.792,451.184 	"/>
	<polygon style="fill:#8F6D52;" points="119.264,488.752 138.32,465.616 373.664,465.616 392.736,488.752 	"/>
</g>
<g>
	<polygon style="fill:#9A795F;" points="134.464,512 65.76,512 166.752,411.536 198.992,411.536 	"/>
	<polygon style="fill:#9A795F;" points="446.24,512 377.536,512 313.008,411.536 345.248,411.536 	"/>
</g>
<g>
	<polygon style="fill:#E24B4B;" points="361.504,427.328 150.496,427.328 95.68,388.704 416.336,388.704 	"/>
	<path style="fill:#E24B4B;" d="M357.568,59.584C356.272,47.776,346.4,38.56,334.24,38.56H177.76
		c-12.144,0-22.032,9.216-23.328,21.024c-33.728,8.432-58.752,38.848-58.752,75.184v253.92h320.656v-253.92
		C416.336,98.432,391.296,68.016,357.568,59.584z"/>
</g>
<path style="fill:#65B1EF;" d="M132.08,161.632v95.92c0,15.792,12.8,28.592,28.592,28.592h190.64
	c15.792,0,28.592-12.8,28.592-28.592v-95.92c0-15.792-12.8-28.592-28.592-28.592H160.688
	C144.896,133.04,132.08,145.856,132.08,161.632z"/>
<g>
	<path style="fill:#59A5E0;" d="M230.448,133.04l-98.352,98.352v26.144c0,5.648,1.696,10.896,4.528,15.328l139.84-139.84h-46.016
		V133.04z"/>
	<path style="fill:#59A5E0;" d="M287.12,133.04l-145.6,145.6c3.072,2.8,6.768,4.88,10.848,6.128L304.096,133.04L287.12,133.04
		L287.12,133.04z"/>
</g>
<path style="fill:#3E4347;" d="M351.312,293.552H160.688c-19.84,0-35.984-16.144-35.984-35.984v-95.92
	c0-19.856,16.144-35.984,35.984-35.984h190.64c19.84,0,35.984,16.144,35.984,35.984v95.92
	C387.312,277.408,371.168,293.552,351.312,293.552z M160.688,140.448c-11.696,0-21.2,9.504-21.2,21.2v95.92
	c0,11.696,9.504,21.2,21.2,21.2h190.64c11.68,0,21.2-9.504,21.2-21.2v-95.92c0-11.696-9.504-21.2-21.2-21.2H160.688z"/>
<g>
	<path style="fill:#FFD93B;" d="M166.544,74.24L166.544,74.24c0,12.08,10.304,21.872,23.024,21.872h132.864
		c12.72,0,23.024-9.792,23.024-21.872l0,0c0-12.08-10.304-21.872-23.024-21.872H189.568C176.848,52.368,166.544,62.16,166.544,74.24
		z"/>
	<circle style="fill:#FFD93B;" cx="331.04" cy="339.952" r="28.736"/>
	<circle style="fill:#FFD93B;" cx="180.96" cy="339.952" r="28.736"/>
</g>
<path style="fill:#E9EFF4;" d="M421.472,377.456H90.528c-8.432,0-15.28,6.832-15.28,15.28l0,0c0,8.432,6.848,15.28,15.28,15.28
	h330.944c8.432,0,15.28-6.832,15.28-15.28l0,0C436.752,384.288,429.904,377.456,421.472,377.456z"/>
</svg>
